<?xml version="1.0" encoding="UTF-8"?>
<!DOCTYPE svg PUBLIC "-//W3C//DTD SVG 1.1//EN" "http://www.w3.org/Graphics/SVG/1.1/DTD/svg11.dtd">
<svg xmlns="http://www.w3.org/2000/svg" version="1.1" width="512px" height="512px" style="shape-rendering:geometricPrecision; text-rendering:geometricPrecision; image-rendering:optimizeQuality; fill-rule:evenodd; clip-rule:evenodd" xmlns:xlink="http://www.w3.org/1999/xlink">
<g><path style="opacity:0.99" fill="#5b6a84" d="M 323.5,95.5 C 370.233,93.0187 400.566,114.019 414.5,158.5C 432.491,159.333 450.491,159.833 468.5,160C 478.223,163.948 481.723,171.114 479,181.5C 477.167,186 474,189.167 469.5,191C 451.232,192.294 432.899,192.961 414.5,193C 402.939,232.382 376.606,253.548 335.5,256.5C 294.394,253.548 268.061,232.382 256.5,193C 185.833,192.667 115.167,192.333 44.5,192C 33.4615,188.43 29.2949,180.93 32,169.5C 33.9268,164.572 37.4268,161.406 42.5,160C 113.836,159.833 185.169,159.333 256.5,158.5C 266.321,124.008 288.654,103.008 323.5,95.5 Z M 327.5,128.5 C 349.101,126.218 365.601,134.218 377,152.5C 388.127,177.152 383.294,197.985 362.5,215C 341.899,227.132 322.232,225.799 303.5,211C 288.053,195.37 284.22,177.203 292,156.5C 299.362,141.285 311.195,131.952 327.5,128.5 Z"/></g>
<g><path style="opacity:0.99" fill="#5b6a84" d="M 163.5,255.5 C 210.233,253.019 240.566,274.019 254.5,318.5C 325.831,319.333 397.164,319.833 468.5,320C 478.223,323.948 481.723,331.114 479,341.5C 476.668,347.164 472.501,350.664 466.5,352C 395.833,352.333 325.167,352.667 254.5,353C 242.939,392.382 216.606,413.548 175.5,416.5C 134.394,413.548 108.061,392.382 96.5,353C 79.1667,352.667 61.8333,352.333 44.5,352C 31.4653,347.082 27.9653,338.249 34,325.5C 36.4411,323.031 39.2744,321.198 42.5,320C 60.5092,319.833 78.5092,319.333 96.5,318.5C 106.321,284.008 128.654,263.008 163.5,255.5 Z M 167.5,288.5 C 189.101,286.218 205.601,294.218 217,312.5C 228.127,337.152 223.294,357.985 202.5,375C 181.899,387.132 162.232,385.799 143.5,371C 128.053,355.37 124.22,337.203 132,316.5C 139.362,301.285 151.195,291.952 167.5,288.5 Z"/></g>
</svg>
